<?xml version="1.0" encoding="UTF-8"?>
<svg width="72px" height="25px" viewBox="0 0 72 25" version="1.1" xmlns="http://www.w3.org/2000/svg" xmlns:xlink="http://www.w3.org/1999/xlink">
    <!-- Generator: Sketch 52.6 (67491) - http://www.bohemiancoding.com/sketch -->
    <title>Group 29</title>
    <desc>Created with Sketch.</desc>
    <g id="UI" stroke="none" stroke-width="1" fill="none" fill-rule="evenodd">
        <g id="要求登录" transform="translate(-89.000000, -40.000000)" fill="#FF2442">
            <g id="nav">
                <g id="Group-29" transform="translate(89.000000, 40.000000)">
                    <g id="Group-29备份">
                        <g id="Group-2">
                            <path d="M67.2345056,6.0374599 C67.233955,5.3185945 67.2297154,4.5997291 67.2349461,3.8811349 C67.2435355,2.68787149 68.1066619,1.70360139 69.301582,1.54803616 C70.5982537,1.37923596 71.6910368,2.22849844 71.9433234,3.3644826 C72.2269394,4.64171218 71.4191487,5.88379313 70.1234131,6.16644669 C69.9558093,6.2030056 69.7852323,6.22323776 69.612618,6.22242414 C69.2620486,6.22085113 68.9116445,6.22188172 68.5611301,6.22188172 L68.5611301,6.22166475 C68.1891974,6.22166475 67.8171544,6.22188172 67.4451115,6.22150203 C67.3952268,6.22150203 67.3451219,6.22074264 67.2954024,6.21699997 C67.2644034,6.21461333 67.2425444,6.19524904 67.2397363,6.16384309 C67.2360473,6.12180576 67.2345056,6.07949723 67.2345056,6.0374599 M33.2140249,20.3251606 C33.2146305,20.4053299 33.1629839,20.4674367 33.1282408,20.5336115 C32.6662843,21.4160699 32.2024558,22.2972808 31.739343,23.1788713 C31.460242,23.7104401 31.1816365,24.2423886 30.9028108,24.7740116 C30.8764369,24.823914 30.8483561,24.8730569 30.8228632,24.9235017 C30.7974253,24.9736211 30.7567907,24.9935278 30.7014,24.9915751 C30.658508,24.9902733 30.6155058,24.991792 30.5726138,24.991792 C29.0711175,24.9942329 27.5695662,24.9965111 26.0679598,24.9987892 C25.7104528,24.9993316 25.3529458,24.9983011 24.9953838,24.9999825 C24.8155016,25.0007962 24.6399141,24.9730787 24.4653176,24.9345128 C24.2424333,24.8852613 24.0184477,24.8402407 23.7963341,24.7880059 C23.6923251,24.7634344 23.5909039,24.7276349 23.4894276,24.6937881 C23.4383316,24.6768104 23.4288612,24.6462181 23.4535833,24.5947427 C23.4718083,24.5564481 23.4927313,24.5196179 23.5124979,24.4820284 C24.2893997,23.0071963 25.0661364,21.5323099 25.8431483,20.0576405 C25.9357048,19.8818431 25.9363655,19.8814634 26.1288566,19.9473129 C26.8593425,20.1974214 27.6149359,20.2997755 28.3842394,20.3038979 C29.4997074,20.3100272 30.6152305,20.3052539 31.7307536,20.3057421 C32.1669969,20.3058506 32.6031851,20.3070982 33.0393183,20.3092136 C33.0951495,20.3094305 33.1525225,20.2984737 33.2140249,20.3251606 M23.3772146,17.8609597 C23.2286067,18.1497968 23.0739421,18.4355421 22.9284175,18.7259523 C22.7290439,19.1234355 22.5376541,19.5247699 22.3393817,19.9227956 C22.2386763,20.1249002 22.1272341,20.3219604 22.0263635,20.5239023 C21.6919268,21.1932992 21.3607387,21.8643777 21.0266324,22.5338831 C20.979776,22.6275586 20.9555494,22.7329502 20.88309,22.8158858 C20.8071618,22.7923449 20.7776494,22.7225358 20.7349226,22.668945 C20.2956509,22.1180119 19.9352257,21.5189665 19.6273282,20.8888405 C19.1791918,19.9716674 18.8486094,19.0131079 18.5941203,18.0279699 C18.4105491,17.3176747 18.2677225,16.5990805 18.1753862,15.8718076 C18.1346966,15.5505882 18.1130579,15.2268195 18.0870694,14.9038643 C18.0255119,14.138568 17.9671479,13.3730005 17.9064714,12.6077042 C17.8530078,11.9336967 17.7972867,11.2597976 17.7443737,10.5856274 C17.7057763,10.0941975 17.671694,9.60227942 17.6329315,9.11074103 C17.5830468,8.47882509 17.5301888,7.84707188 17.4790377,7.21526442 C17.4558023,6.92740366 17.4338882,6.6395429 17.4114787,6.35162789 C17.4049265,6.2688008 17.4165442,6.25589127 17.5046408,6.25236556 C17.5474778,6.25084679 17.5904799,6.25182314 17.633427,6.25182314 C19.0638954,6.25171466 20.4943638,6.25149769 21.9248322,6.25236556 C21.9953095,6.25236556 22.0674936,6.24016118 22.1520663,6.2750386 C22.1610962,6.35021761 22.1740354,6.43282774 22.1803674,6.51603452 C22.2163218,6.98668985 22.2493029,7.45756215 22.2860282,7.92800051 C22.3194499,8.35634731 22.3572763,8.78436865 22.3914138,9.21271545 C22.427203,9.66216227 22.4605696,10.1117176 22.4957532,10.5611644 C22.532093,11.0246598 22.5699195,11.4879925 22.6058739,11.9514337 C22.6423789,12.4219806 22.6767917,12.8927444 22.7134619,13.3633455 C22.7474341,13.7985809 22.7837189,14.2338164 22.8183519,14.6692147 C22.8405963,14.9500782 22.867741,15.2307791 22.8818365,15.5120766 C22.9172403,16.2174901 23.0848441,16.8894906 23.3851984,17.5303022 C23.463274,17.696987 23.484252,17.6529427 23.3772146,17.8609597 M6.29258769,6.51500393 C6.24237263,7.14691987 6.19023046,7.77883581 6.13803323,8.41075174 C6.09855495,8.88797032 6.05676413,9.36502618 6.01800163,9.84240748 C5.98320348,10.2701576 5.95352594,10.6982874 5.91724115,11.1259291 C5.86900827,11.6931347 5.81444344,12.2599063 5.76665104,12.8272204 C5.71638093,13.423825 5.66957961,14.0208092 5.62354914,14.6178478 C5.56309286,15.4041898 5.49052329,16.1889589 5.32561748,16.9626627 C5.08412271,18.0956093 4.76075316,19.2040929 4.28800483,20.2658745 C3.89867295,21.1401966 3.42509872,21.9665691 2.8015951,22.70328 C2.76553056,22.7458597 2.73733965,22.796413 2.68305012,22.8206048 C2.64863739,22.8028678 2.63189904,22.7720042 2.61571129,22.7402728 C2.44496909,22.407283 2.27835641,22.0720692 2.10238347,21.7417914 C1.81017809,21.1932992 1.54291506,20.6323315 1.2356782,20.0912704 C1.07198372,19.802596 0.920843004,19.506382 0.777851225,19.207239 C0.634584144,18.907445 0.464722905,18.6221336 0.309617844,18.3288487 C0.220364986,18.1602112 0.135351776,17.9892413 0.0404827593,17.8236956 C-0.0096772371,17.7359325 -0.0147427911,17.6643335 0.0338204546,17.5697359 C0.29706408,17.0563924 0.462190128,16.5113174 0.542578267,15.9421591 C0.570108451,15.7472687 0.58034968,15.5497746 0.596427308,15.3533111 C0.655121661,14.6373748 0.714036257,13.9214384 0.770858558,13.2052309 C0.804225141,12.7843152 0.831259783,12.3625859 0.865672514,11.9417787 C0.89942452,11.5283484 0.940609676,11.1156774 0.975628071,10.7025183 C1.0124084,10.2678795 1.0450592,9.83296942 1.08079338,9.39827634 C1.13403675,8.75263725 1.18904206,8.10699816 1.24184496,7.46130483 C1.26645694,7.15955819 1.2872147,6.85743185 1.31067042,6.55573945 C1.31606633,6.4854422 1.32382985,6.41530766 1.33291481,6.34549858 C1.3437617,6.26202059 1.35064425,6.25621672 1.44154892,6.25269101 C1.49148867,6.25062983 1.54170373,6.25182314 1.59180866,6.25182314 C3.07953984,6.25171466 4.56738114,6.25149769 6.05511232,6.25193163 C6.36091761,6.25204011 6.31532762,6.2295298 6.29258769,6.51500393 M24.8648357,9.46260701 C24.8490333,9.26983197 24.8717182,9.08454228 24.9250167,8.89946957 C25.0304573,8.53301256 25.1707511,8.1790854 25.320295,7.82852121 C25.5641024,7.25692206 25.8345038,6.69758153 26.1157522,6.143177 C27.116089,4.1720332 28.117582,2.20121485 29.1200111,0.23104741 C29.2423553,-0.00951458082 29.1886714,0.0234643798 29.4537871,0.0232474129 C30.8770426,0.0222710621 32.300243,0.0228134792 33.7233884,0.0228134792 L33.9294793,0.0228134792 C33.962956,0.0983179416 33.9145029,0.14230797 33.8907168,0.189444017 C33.4755616,1.00827689 33.0583692,1.82618766 32.6417825,2.6443154 C32.0584729,3.78979186 31.4749982,4.93521408 30.8923494,6.08090751 C30.8476954,6.16888757 30.8018301,6.25730156 30.7684635,6.34978367 C30.6737046,6.61307294 30.7701153,6.82439865 31.0301655,6.93483478 C31.0693684,6.95143274 31.1104435,6.96455923 31.1516837,6.97584151 C31.2646125,7.00670504 31.2855905,6.99916544 31.3383383,6.89740799 C31.4293531,6.7219903 31.5211938,6.54662685 31.6054913,6.36795465 C31.6440886,6.28577846 31.6968915,6.24780926 31.7880714,6.25849487 C31.8233101,6.26277997 31.8594847,6.25914577 31.895329,6.25914577 C33.3184744,6.25914577 34.7416748,6.25903729 36.1648753,6.25968819 C36.2357379,6.25968819 36.307867,6.24862288 36.3836301,6.27471315 C36.3902373,6.35634692 36.3356725,6.41764006 36.3021408,6.48359798 C35.7457557,7.57938903 35.1873885,8.67420374 34.6295719,9.76939813 C33.9274971,11.1475173 33.2254224,12.5257449 32.5240083,13.904298 C32.4792443,13.9921696 32.433379,14.0805836 32.4000124,14.1729572 C32.304813,14.4370059 32.399627,14.649308 32.6608884,14.7577371 C32.8278865,14.8271665 33.006172,14.8471817 33.185834,14.8489174 C33.4289806,14.8515753 33.6721272,14.8496768 33.9153288,14.8500023 C34.2943644,14.8503277 34.6734,14.8509244 35.0524906,14.8513583 C35.1021,14.8515753 35.1516543,14.8513583 35.2146434,14.8513583 C35.2066046,14.9533327 35.1605741,15.0096899 35.1283087,15.070983 C34.628746,16.021569 34.1290732,16.971938 33.6275283,17.921385 C33.5020457,18.1589637 33.3817388,18.3987663 33.2881361,18.6502851 C33.2619825,18.7206366 33.2192556,18.7516086 33.1442634,18.7451538 C33.1087495,18.742062 33.072795,18.7446657 33.0371159,18.7446657 C31.5566527,18.7446657 30.0761344,18.7436893 28.5957263,18.7452623 C28.2490111,18.7458047 27.9129227,18.6919427 27.5853135,18.5815066 C27.442652,18.5335027 27.306763,18.4713417 27.1782521,18.3939387 C26.7645285,18.1444269 26.5415891,17.7801395 26.4973756,17.3050364 C26.4788203,17.1054811 26.5008995,16.9131943 26.5567307,16.7209074 C26.6690538,16.334164 26.8183776,15.9611437 26.977447,15.5917577 C27.3041752,14.8325365 27.6805679,14.0970188 28.0553638,13.3603622 C28.4331881,12.6176304 28.8108472,11.8747359 29.1875702,11.131299 C29.2185141,11.0702771 29.2616815,11.01213 29.2652053,10.9383613 C29.1890568,10.9095047 29.1178638,10.9216548 29.0482675,10.9215463 C28.3402462,10.9204615 27.6322249,10.9204615 26.9242587,10.9210039 C26.5847564,10.9212209 26.2561011,10.8610126 25.9361453,10.7517155 C25.8006417,10.7055016 25.6715802,10.6453475 25.549181,10.5715246 C25.1279692,10.3175649 24.9045342,9.94660581 24.8648357,9.46260701 M14.2389002,0.286428197 C14.2395609,3.7384792 14.2392305,7.19074717 14.2392856,10.6429067 C14.2392856,14.0670232 14.241433,17.4909227 14.2375787,20.9149308 C14.2366978,21.6805525 14.0562649,22.4086933 13.699694,23.090837 C13.3665788,23.7285026 12.8869479,24.2276348 12.2382817,24.562035 C11.8279718,24.7732522 11.3881496,24.8920415 10.9313687,24.9508396 C10.3447556,25.0261271 9.76089541,25.0040507 9.18347732,24.8744672 C8.18038751,24.6495811 7.41989369,24.0992447 6.91212697,23.2154845 C6.61232325,22.6938962 6.44031466,22.1303248 6.35568687,21.5393071 C6.33872828,21.4209517 6.32617452,21.3015657 6.31852112,21.1822339 C6.31026207,21.0542777 6.32000775,21.0464669 6.44075514,21.0431039 C6.49080502,21.0418564 6.54090996,21.042887 6.59101489,21.042887 L9.16552764,21.042887 C9.20137194,21.042887 9.23710612,21.0426158 9.2728403,21.042887 C9.49781697,21.0448939 9.48306079,21.044026 9.48306079,20.8355751 C9.48300573,19.7365838 9.48300573,18.6374298 9.48300573,17.53833 C9.48300573,11.7964651 9.48284055,6.05443756 9.48465754,0.312572702 C9.48465754,0.217486982 9.43824165,0.0987518753 9.51725328,0.0317091199 C9.58382126,-0.0246480183 9.69564887,0.0113142364 9.78737945,0.011205753 C11.1747906,0.0102294022 12.5621468,0.00968698505 13.949613,0.0109887861 C14.277993,0.0114227198 14.238735,-0.0316451991 14.2389002,0.286428197 M49.8312994,24.7912062 C49.8312994,24.8263006 49.8320702,24.8616662 49.8303083,24.8967063 C49.8262338,24.9759535 49.8116428,24.9900563 49.7240969,24.9932023 C49.6597863,24.995372 49.5954208,24.994016 49.5310552,24.994016 L39.1238746,24.994016 C37.2285315,24.994016 35.3330783,24.9941244 33.4376801,24.993799 C33.3610911,24.9937447 33.2845572,24.9902733 33.1966809,24.9878324 C33.2048298,24.8947536 33.2530627,24.8313993 33.28709,24.764465 C33.7325834,23.8894377 34.1796736,23.0151698 34.6262683,22.1407935 C34.9056446,21.5933861 35.1848007,21.0459245 35.4642321,20.4985172 C35.4867517,20.4545271 35.5119143,20.4118389 35.5329474,20.3671437 C35.5538703,20.3226655 35.589109,20.3070982 35.63569,20.3073151 C35.6929528,20.3076406 35.7501606,20.3069897 35.8074233,20.3069897 C37.2307889,20.3069897 38.6542096,20.3073151 40.0775752,20.3065557 C40.3538681,20.3064473 40.3322294,20.3365514 40.3322294,20.059322 C40.3323946,15.5426689 40.3323395,11.0259074 40.3323395,6.50925431 C40.3323395,6.49509722 40.3323946,6.48110286 40.3323395,6.46689153 C40.3311833,6.25008741 40.3461597,6.26071878 40.122945,6.26071878 C39.2216618,6.26050182 38.3203786,6.2606103 37.4191505,6.2606103 C37.164276,6.2606103 37.1837123,6.27813037 37.1837123,6.03670052 C37.1834921,4.62039519 37.1836022,3.2041441 37.1836022,1.78778453 C37.1836022,1.55492486 37.1694517,1.57380098 37.406872,1.57380098 C40.9403161,1.57369249 44.4737603,1.57369249 48.0070943,1.57380098 C48.2631801,1.57380098 48.2427527,1.55454517 48.2427527,1.7964632 C48.2431381,3.21282277 48.2428628,4.6291281 48.2429729,6.04548767 C48.2429729,6.27471315 48.255802,6.26071878 48.0199234,6.26071878 C47.1544845,6.26050182 46.2888804,6.2606103 45.4234415,6.2606103 C45.3805495,6.2606103 45.3376575,6.26082727 45.2947104,6.26050182 C45.070009,6.25903729 45.0848753,6.25491492 45.0847652,6.46700001 L45.0847652,7.29147403 L45.0847652,20.038222 C45.0847652,20.0804763 45.0841045,20.1227848 45.0849304,20.1650391 C45.0879036,20.3033555 45.0885644,20.3040064 45.2310055,20.3067727 C45.2811105,20.3076406 45.3311053,20.3069897 45.3812102,20.3069897 L49.565523,20.3069897 C49.6298886,20.3069897 49.6943643,20.3062845 49.7586197,20.3088881 C49.798098,20.3105696 49.8256832,20.3310187 49.8279407,20.3733273 C49.8302532,20.4153646 49.8311342,20.4577816 49.8311342,20.499819 C49.8313545,21.9303356 49.8312994,23.3606353 49.8312994,24.7912062 M61.7678368,10.0691378 C61.7655794,10.1080834 61.7459779,10.1360721 61.7039668,10.1399233 C61.6614602,10.1438829 61.6186232,10.1461611 61.5758964,10.1462695 C60.8831268,10.146812 60.1903573,10.146812 59.4976978,10.1464865 C59.4620187,10.1464865 59.4262845,10.145239 59.3908256,10.1426354 C59.3493101,10.1395978 59.3256342,10.1143212 59.3232666,10.0751044 C59.320018,10.0190185 59.3207338,9.96266135 59.3207338,9.90630421 C59.3206237,9.33649503 59.3207338,8.76657737 59.3207338,8.00605434 C59.3138512,7.61985335 59.3033347,7.04315547 59.2936992,6.46624063 C59.2901753,6.25551158 59.2776766,6.25860336 59.5010014,6.25914577 C59.9723733,6.26039333 60.44369,6.25914577 60.9150068,6.25936274 C61.0366351,6.25947123 61.1566667,6.26532933 61.274551,6.30340701 C61.5686284,6.39838425 61.737884,6.60151946 61.7656895,6.90348307 C61.7702595,6.95246333 61.7692684,7.00193177 61.7692684,7.05107476 C61.7695437,8.01494998 61.7695437,8.97882519 61.7695437,9.94264616 C61.7694887,9.98468349 61.7700943,10.0271005 61.7678368,10.0691378 M69.7382658,10.7872439 C68.914893,10.3550459 68.0294122,10.15625 67.1004336,10.1336855 C66.9217627,10.1291834 66.7427614,10.1341736 66.5639804,10.1320582 C66.4467018,10.1306479 66.4426274,10.1248441 66.4389934,10.0134316 C66.4378371,9.97833721 66.438663,9.94308009 66.438663,9.90787722 C66.4385529,8.98473754 66.4380023,8.06170633 66.4388282,7.13856664 C66.4391035,6.75057568 66.4188413,6.36415773 66.3648821,5.97952975 C66.2888438,5.43884837 66.1444204,4.91774825 65.9083766,4.42284687 C65.4704264,3.50469742 64.7876779,2.81403771 63.885789,2.33383584 C62.9562599,1.83898871 61.9571344,1.59793854 60.9034441,1.57613337 C60.4458374,1.56658683 59.9879553,1.57260766 59.5301284,1.57195676 C59.3231014,1.57163131 59.326405,1.58226268 59.3267904,1.38021231 C59.3275613,1.00681237 59.3270107,0.6332497 59.3269556,0.259741275 C59.3269006,0.203384137 59.326405,0.147026999 59.3259095,0.0906698603 C59.3256342,0.0419608034 59.3053169,0.0103378856 59.251578,0.00892760108 C59.2158438,0.00800549199 59.1801647,0.00746307487 59.1443204,0.00746307487 C57.6780627,0.00735459145 56.2115849,0.00735459145 54.7452722,0.00735459145 C54.7309565,0.00735459145 54.7165307,0.00713762461 54.7023801,0.00746307487 C54.5684183,0.0107718193 54.5665462,0.0121821038 54.5632976,0.134442921 C54.5621964,0.176697215 54.5629673,0.218951508 54.5629673,0.261368526 C54.5629122,0.620611382 54.5631325,0.980016962 54.5628572,1.33953103 C54.5628572,1.39577968 54.5625268,1.45213682 54.5594434,1.50827699 C54.5571859,1.54950069 54.5302614,1.57011254 54.489737,1.57141434 C54.4325843,1.57320432 54.3753766,1.57369249 54.3181689,1.57369249 C53.4312014,1.57380098 52.5442339,1.57380098 51.6572114,1.57380098 C51.6001138,1.57380098 51.5427408,1.57260766 51.4856432,1.57504854 C51.4192955,1.57797759 51.4016211,1.59690795 51.3982624,1.66715096 C51.3959499,1.71640244 51.3971612,1.76576239 51.3971612,1.81512235 C51.3970511,3.21743332 51.3972163,4.6196358 51.3970511,6.02189253 C51.3969961,6.28664632 51.3845524,6.26028485 51.6408584,6.26039333 C52.5492444,6.26093575 53.4577956,6.26050182 54.3661815,6.26071878 C54.5767324,6.26071878 54.5659956,6.24954499 54.5659956,6.45360231 C54.5658855,7.60211631 54.566326,8.75068455 54.5656652,9.89930703 C54.5655001,10.1602097 54.5933606,10.1323837 54.3207017,10.1324922 C52.8973361,10.13336 51.4738603,10.1330346 50.0503846,10.1328176 C49.7849386,10.1328176 49.8077336,10.1205047 49.8077336,10.3733254 C49.8075133,11.7614792 49.8067975,13.1496331 49.808174,14.537787 C49.8084493,14.861393 49.7663832,14.820983 50.0895325,14.8212542 C51.5058504,14.822556 52.9221683,14.8217966 54.338376,14.8219051 C54.5839453,14.8219051 54.5658855,14.8031374 54.5659956,15.0533545 L54.5659956,17.0193453 C54.5659956,19.5983759 54.5658855,22.1774066 54.5660507,24.7564915 C54.5660507,25.0143566 54.5445771,24.994016 54.8097479,24.994016 C56.2331685,24.9941244 57.6566443,24.9941244 59.0800649,24.994016 C59.3463369,24.993799 59.3233767,25.0146821 59.3234318,24.7564915 C59.3237071,23.1427463 59.3235969,21.5291639 59.3235969,19.915473 L59.3235969,15.0957172 C59.3235969,15.0392516 59.3222204,14.9828945 59.3242577,14.9265916 C59.327286,14.8419203 59.3419871,14.8262987 59.422155,14.8229899 C59.4792526,14.820549 59.5365704,14.8219051 59.5937782,14.8219051 L62.3834668,14.8219051 L65.5809326,14.8219051 C65.8711558,14.8217966 66.1498714,14.8784792 66.4120138,15.0006315 C66.9241854,15.239295 67.1893561,15.6467045 67.232083,16.1978546 C67.2425444,16.331018 67.2416084,16.4653747 67.2416084,16.5992975 C67.242159,17.9732943 67.2423242,19.3474538 67.2416084,20.7215048 C67.2416084,21.0180985 67.2701847,20.9822447 66.9801818,20.9824617 C65.5782897,20.9834923 64.1762325,20.9830041 62.7742853,20.9830041 C62.7099198,20.9830041 62.6455542,20.9817566 62.5812437,20.9839262 C62.5139048,20.9863129 62.4968361,21.0044838 62.4987632,21.0768423 C62.5005252,21.1470853 62.5044345,21.217708 62.5134093,21.2873544 C62.5467759,21.5464128 62.5985877,21.8019455 62.6769386,22.0514031 C63.0775578,23.3263003 63.8991687,24.2115793 65.1805336,24.6693793 C65.6201356,24.8265718 66.0753197,24.9123279 66.5393684,24.9571858 C66.9817785,24.9998741 67.4241335,25.0047558 67.8673695,24.9647797 C68.2816988,24.9275156 68.6901366,24.8619916 69.088168,24.7426599 C70.846631,24.2157559 71.9945847,22.6931368 71.995796,20.883796 C71.9972826,18.8685537 71.9952454,16.8531487 71.9970073,14.8379064 C71.9972826,14.4632589 71.9707435,14.0917574 71.8998258,13.7239444 C71.6469335,12.4112407 70.9422158,11.419214 69.7382658,10.7872439" id="Fill-1"></path>
                        </g>
                    </g>
                </g>
            </g>
        </g>
    </g>
</svg>